<svg xmlns="http://www.w3.org/2000/svg" width="120" height="120" viewBox="0 0 120 120">
  <defs>
    <linearGradient id="hull" x1="0" y1="0" x2="0" y2="1">
      <stop offset="0" stop-color="#3d6fd8"/>
      <stop offset="0.45" stop-color="#24418f"/>
      <stop offset="1" stop-color="#131f47"/>
    </linearGradient>
    <linearGradient id="barrel" x1="0" y1="1" x2="0" y2="0">
      <stop offset="0" stop-color="#2a4a9e"/>
      <stop offset="0.6" stop-color="#5b8ef0"/>
      <stop offset="1" stop-color="#bfe0ff"/>
    </linearGradient>
    <radialGradient id="coreGlow" cx="0.5" cy="0.5" r="0.5">
      <stop offset="0" stop-color="#ffffff" stop-opacity="0.95"/>
      <stop offset="0.45" stop-color="#7fd8ff" stop-opacity="0.8"/>
      <stop offset="1" stop-color="#2f9bff" stop-opacity="0"/>
    </radialGradient>
    <radialGradient id="muzzleGlow" cx="0.5" cy="0.5" r="0.5">
      <stop offset="0" stop-color="#ffffff" stop-opacity="0.9"/>
      <stop offset="1" stop-color="#6cc8ff" stop-opacity="0"/>
    </radialGradient>
  </defs>

  <ellipse cx="60" cy="96" rx="46" ry="12" fill="#0b1230" fill-opacity="0.55"/>

  <path fill="#0d1638" d="M18 74 L28 52 L92 52 L102 74 L92 100 L28 100 Z"/>
  <path fill="url(#hull)" stroke="#7fb4ff" stroke-opacity="0.55" stroke-width="2"
        d="M22 74 L31 56 L89 56 L98 74 L89 96 L31 96 Z"/>

  <path fill="#16255c" stroke="#6ea8ff" stroke-opacity="0.5" stroke-width="1.6" d="M10 78 L24 62 L26 90 L12 92 Z"/>
  <path fill="#16255c" stroke="#6ea8ff" stroke-opacity="0.5" stroke-width="1.6" d="M110 78 L96 62 L94 90 L108 92 Z"/>

  <rect x="52" y="18" width="16" height="46" rx="4" fill="url(#barrel)"/>
  <rect x="46" y="40" width="28" height="9" rx="3" fill="#2c50ad" stroke="#8cc2ff" stroke-opacity="0.5" stroke-width="1.4"/>
  <rect x="49" y="14" width="22" height="8" rx="3.5" fill="#9fd4ff"/>
  <circle cx="60" cy="16" r="14" fill="url(#muzzleGlow)"/>

  <circle cx="60" cy="76" r="19" fill="#0a1130"/>
  <circle cx="60" cy="76" r="15" fill="url(#coreGlow)"/>
  <circle cx="60" cy="76" r="7" fill="#e8f8ff"/>

  <path stroke="#8ec8ff" stroke-opacity="0.65" stroke-width="2" fill="none" d="M34 88 L46 88 M74 88 L86 88"/>
  <circle cx="31" cy="66" r="3" fill="#9fe0ff" fill-opacity="0.85"/>
  <circle cx="89" cy="66" r="3" fill="#9fe0ff" fill-opacity="0.85"/>
</svg>
